<?xml version="1.0" encoding="UTF-8" standalone="no"?>
<svg
   width="100"
   height="100"
   viewBox="0 0 100 100"
   version="1.1"
   xmlns:xlink="http://www.w3.org/1999/xlink"
   xmlns="http://www.w3.org/2000/svg"
   xmlns:svg="http://www.w3.org/2000/svg">
  <defs
     id="defs1">
    <linearGradient
       id="linearGradient48">
      <stop
         style="stop-color:#ffe40e;stop-opacity:1;"
         offset="0"
         id="stop1" />
      <stop
         style="stop-color:#da006c;stop-opacity:1;"
         offset="1"
         id="stop2" />
    </linearGradient>
    <radialGradient
       xlink:href="#linearGradient48"
       id="radialGradient"
       cx="61"
       cy="74"
       fx="61"
       fy="74"
       r="30"
       gradientTransform="matrix(0.53002405,-1.3535884,1.5802291,0.61876967,-78.711565,114.06294)"
       gradientUnits="userSpaceOnUse" />
  </defs>
  <g>
    <path
       fill="#330066"
       d="m 133.11144,132.96438 c -1.37264,1.37858 -8.34847,1.39365 -9.72705,0.021 -1.37858,-1.37264 -1.39365,-8.34847 -0.021,-9.72705 1.37264,-1.37859 8.34847,-1.39365 9.72705,-0.021 1.37859,1.37264 1.39365,8.34847 0.021,9.72705 z"
       transform="matrix(8.057294,0,0,8.057294,-983.24653,-982.23088)" />
    <path
       d="m 17.499967,15.63447 v 67.924928 h 13.33562 V 34.716497 l 1.941607,2.625405 17.170218,24.732767 17.275297,-24.735903 1.94004,-2.655205 V 62.628294 L 57.400179,62.587521 69.874776,84.36553 82.495232,62.681622 h 0.0032 v -0.0047 l 0.0016,-0.0032 h -0.0016 V 15.63447 H 66.404034 L 49.961528,38.121368 33.599007,15.63447 Z"
       style="display:inline" />
    <path
       fill="url(#radialGradient)"
       d="m 17.499967,15.63447 v 67.924928 h 13.33562 V 34.716497 l 1.941607,2.625405 17.170218,24.732767 17.275297,-24.735903 1.94004,-2.655205 V 62.628294 L 57.400179,62.587521 69.874776,84.36553 82.495232,62.681622 h 0.0032 v -0.0047 l 0.0016,-0.0032 h -0.0016 V 15.63447 H 66.404034 L 49.961528,38.121368 33.599007,15.63447 Z"
       style="display:inline;fill:url(#radialGradient)" />
  </g>
</svg>
