<?xml version="1.0" encoding="UTF-8" standalone="no"?>
<svg
   width="500"
   height="120"
   viewBox="0 0 500 120"
   version="1.1"
   id="svg1"
   sodipodi:docname="wordmark-font.svg"
   xmlns:inkscape="http://www.inkscape.org/namespaces/inkscape"
   xmlns:sodipodi="http://sodipodi.sourceforge.net/DTD/sodipodi-0.dtd"
   xmlns="http://www.w3.org/2000/svg"
   xmlns:svg="http://www.w3.org/2000/svg">
  <defs
     id="defs1" />
  <sodipodi:namedview
     id="namedview1"
     pagecolor="#000011"
     bordercolor="#222233"
     borderopacity="1"
     inkscape:showpageshadow="0"
     inkscape:pageopacity="0"
     inkscape:pagecheckerboard="1"
     inkscape:deskcolor="#111122" />
  <!--
  <style> svg { background: #331144; } </style>
  -->
  <g
     transform="translate(5 10)"
     id="g1">
    <path
       fill="#ff1100"
       d="m 50,6.5 c -0.529585,0 -1.059121,0.1372703 -1.535156,0.4121094 L 12.84375,27.478516 c -0.952046,0.549663 -1.535128,1.558875 -1.535156,2.658203 v 35.859375 c 1.08e-4,4.364945 2.325315,8.393699 6.105468,10.576172 l 26.480469,15.291015 c 3.780248,2.182527 8.43069,2.182527 12.210938,0 L 82.585938,76.566406 c 3.780151,-2.18247 6.105356,-6.209276 6.105468,-10.574218 V 30.136719 C 88.691379,29.037391 88.108295,28.02818 87.15625,27.478516 L 51.535156,6.9121094 C 51.059121,6.6372703 50.529585,6.5 50,6.5 Z m 0,15.28125 c 3.334826,0 6.070265,2.735487 6.070312,6.070312 v 19.34961 l 16.75,9.669922 0.0039,0.002 c 1.654384,0.944009 2.678824,2.414312 2.998047,3.945312 0.319806,1.533803 -0.0092,3.078179 -0.75,4.361329 -0.740849,1.283149 -1.914116,2.342129 -3.402344,2.832031 -1.485811,0.489106 -3.271036,0.336301 -4.916016,-0.625 l -0.0059,-0.0039 L 50,57.714844 l -16.746094,9.667968 -0.0078,0.0039 c -1.645,0.961403 -3.430159,1.114095 -4.916016,0.625 -1.488275,-0.489892 -2.661477,-1.54885 -3.402344,-2.832031 -0.7409,-1.283181 -1.06984,-2.827491 -0.75,-4.361329 0.319256,-1.531034 1.343564,-3.001339 2.998047,-3.945312 l 0.0039,-0.002 c 0.0017,-10e-4 0.0022,-0.0029 0.0039,-0.0039 l 16.746094,-9.666016 v -19.34961 c 0,-3.334825 2.735485,-6.070312 6.070312,-6.070312 z"
       id="path1" />
    <path
       d="m 173.41,29.1 c -10.44,0 -16.83,6.66 -16.83,14.13 h -0.9 c 0.09,-7.47 -6.39,-14.13 -16.74,-14.13 -12.42,0 -20.25,7.47 -20.25,22.68 V 75 h 8.55 V 51.06 c 0,-9.9 5.4,-13.95 11.79,-13.95 8.55,0 12.78,5.94 12.78,13.95 V 75 h 8.64 V 51.06 c 0,-8.01 4.23,-13.95 12.78,-13.95 6.48,0 11.79,4.05 11.79,13.95 V 75 h 8.64 V 51.78 c 0,-15.21 -7.92,-22.68 -20.25,-22.68 z m 35.63008,23.94 c 0,13.77 8.91,22.86 21.87,22.86 10.62,0 16.02,-5.31 16.02,-8.91 v -0.81 l 0.9,-0.09 V 75 h 8.55 V 52.5 c 0,-14.04 -9.45,-23.4 -23.67,-23.4 -14.31,0 -23.67,9.36 -23.67,23.94 z m 8.55,-0.54 c 0,-9.18 6.03,-15.39 15.12,-15.39 9.27,0 15.03,5.94 15.03,15.39 0,9.09 -4.14,15.39 -15.3,15.39 -9.27,0 -14.85,-5.94 -14.85,-15.39 z m 62.80994,-0.63 c 0,-8.82 6.03,-14.31 15.03,-14.31 v -8.28 c -14.31,0 -23.58,9.09 -23.58,23.67 V 75 h 8.55 z M 310.45003,75 h 8.55 l 13.5,-18.27 15.48,18.27 h 10.35 l -20.88,-24.84 14.94,-20.16 h -9.9 l -23.49,32.49 V 7.5 h -8.55 z m 55.0699,-22.5 c 0,14.04 9.45,23.4 23.67,23.4 14.22,0 23.67,-9.36 23.67,-23.4 0,-14.04 -9.45,-23.4 -23.67,-23.4 -14.22,0 -23.67,9.36 -23.67,23.4 z m 8.55,0 c 0,-9.18 6.03,-15.39 15.12,-15.39 9.09,0 15.12,6.21 15.12,15.39 0,9.18 -6.03,15.39 -15.12,15.39 -9.09,0 -15.12,-6.21 -15.12,-15.39 z m 62.71997,-1.44 c 0,-8.28 5.85,-13.95 14.22,-13.95 8.64,0 14.4,5.58 14.4,13.95 V 75 h 8.64 V 51.78 c 0,-13.59 -9.09,-22.68 -22.68,-22.68 -14.04,0 -23.13,9.09 -23.13,22.68 V 75 h 8.55 z"
       id="text1"
       style="font-size:90px;font-family:'Qurova DEMO';letter-spacing:8;fill:#ff1100;stroke:#ff1100;stroke-width:4;stroke-linejoin:round"
       aria-label="markon" />
  </g>
</svg>
